# xmcd
#
# Track frame offsets: 
#        150
#        4464
#        22216
#        38038
#        54528
#        71030
#        86486
#        103237
#        111119
#        128479
#        152079
#        168581
#
# Disc length: 2482 seconds
#
# Revision: 0
# Processed by: cddbd v1.5.2PL0 Copyright (c) Steve Scherf et al.
# Submitted via: ExactAudioCopy v0.95b4
#
DISCID=a009b00c
DTITLE=Ms. Peachez - U Hear Me
DYEAR=2009
DGENRE=Hip-Hop
TTITLE0=Why u jockin' Peachez
TTITLE1=Fry Dat Chicken
TTITLE2=Duck Duck Goose
TTITLE3=Cell Phone
TTITLE4=In Da Tub
TTITLE5=Eat da chicken leg
TTITLE6=Boo Boo
TTITLE7=Woopdy Doo
TTITLE8=Do the Chicken
TTITLE9=From Da Country
TTITLE10=BAR B-Q
TTITLE11=Helicopter (Rico Da Body)
EXTD=
EXTT0=
EXTT1=
EXTT2=
EXTT3=
EXTT4=
EXTT5=
EXTT6=
EXTT7=
EXTT8=
EXTT9=
EXTT10=
EXTT11=
PLAYORDER=
